<?xml version="1.0" encoding="utf-8"?>
<!-- Generator: Adobe Illustrator 29.8.3, SVG Export Plug-In . SVG Version: 9.03 Build 0)  -->
<svg version="1.1" baseProfile="basic" id="Layer_1"
	 xmlns="http://www.w3.org/2000/svg" xmlns:xlink="http://www.w3.org/1999/xlink" x="0px" y="0px" viewBox="0 0 1402.8 245.1"
	 xml:space="preserve">
<style type="text/css">
	.st0{fill:#FFFFFF;}
	.st1{fill-rule:evenodd;clip-rule:evenodd;fill:#FFFFFF;}
</style>
<g>
	<path class="st0" d="M173.2,217.5c-74.3,3.9-127.2-23-158.6-80.7c37.7-19.2,74.3-16.9,109.7,6.7c-20-42.8-11.9-82.4,24.1-118.5
		c-28,88.9,23.4,87.5,27.3,167.5c-21.2-26.1-51.7-42.8-91.5-50.2C124.8,154.3,154.5,179.4,173.2,217.5z"/>
	<path class="st1" d="M173.2,217.5c-74.3,3.9-127.2-23-158.6-80.7c37.7-19.2,74.3-16.9,109.7,6.7c-20-42.8-11.9-82.4,24.1-118.5
		c-28,88.9,23.4,87.5,27.3,167.5c-21.2-26.1-51.7-42.8-91.5-50.2C124.8,154.3,154.5,179.4,173.2,217.5z"/>
	<path class="st1" d="M276.2,142.1c-39.8,7.4-70.3,24.2-91.5,50.2c3.9-80,55.3-78.6,27.3-167.5c36.1,36.2,44.1,75.7,24.2,118.6
		c35.4-23.6,71.9-25.8,109.7-6.7c-31.4,57.7-84.3,84.6-158.6,80.7C205.8,179.4,235.5,154.3,276.2,142.1"/>
	<path class="st0" d="M206.8,83.1c0,14.1-11.5,25.6-25.6,25.6c-14.1,0-25.6-11.5-25.6-25.6c0-14.1,11.5-25.6,25.6-25.6
		C195.3,57.5,206.8,69,206.8,83.1z"/>
	<path class="st0" d="M436.3,61.2c2.2,0,5,0.1,8.3,0.3c3.3,0.2,6.7,0.5,10.2,0.9c3.5,0.4,6.6,0.8,9.2,1.2c2.6,0.4,4.4,0.8,5.4,1.3
		l-2,22.6h-1.7c0-5.8-2.2-10.5-6.4-14c-4.3-3.5-10-5.3-17.2-5.3c-6.5,0-11.7,1.6-15.7,4.7c-4,3.1-6.1,6.9-6.3,11.4
		c-0.1,3.4,0.9,6.3,3.2,8.7c2.2,2.5,5.1,4.7,8.5,6.9l32,20.8c5.1,2.9,9,6.7,11.6,11.4c2.6,4.7,3.8,10.2,3.4,16.4
		c-0.6,10.9-4.7,19.5-12.6,25.5c-7.8,6.1-18.4,9.1-31.8,9.1c-4.9,0-9.7-0.4-14.3-1.3c-4.6-0.8-8.7-2-12.3-3.5
		c-3.6-1.5-6.4-3.3-8.5-5.4c-0.9-2.5-1.3-5.4-1.2-8.9c0.1-3.5,0.6-7,1.6-10.6c0.9-3.6,2.1-6.5,3.6-8.9h1.5c-0.4,5.7,0.6,11,3.1,15.8
		c2.5,4.9,6.2,8.7,11.1,11.6c4.9,2.8,10.6,4.2,17.3,4.1c7.4-0.1,13.1-2,17.1-5.6c4-3.6,6-8,6-13.1c0-3.5-1-6.6-3.1-9.4
		c-2.1-2.8-5.4-5.5-10.1-8L417,120.5c-5.9-3.4-10.2-7.6-12.9-12.9c-2.7-5.2-3.7-10.9-3.2-17.1c0.6-5.8,2.3-10.9,5.2-15.3
		c2.9-4.4,6.9-7.8,12-10.3C423.2,62.4,429.3,61.2,436.3,61.2z M469.6,62.9l-0.3,3.5h-19.8v-3.5H469.6z"/>
	<path class="st0" d="M522.9,75.8h-0.5c-0.1-2.9-1.2-5.4-3.3-7.5c-2.1-2.1-4.6-3.1-7.5-3.1h-2.2v-1.7h13.4V75.8z M522.9,168.6v12.2
		h-13.4v-1.7h2.2c2.9,0,5.4-1,7.5-3.1c2.1-2.1,3.2-4.5,3.3-7.5H522.9z M547.5,63.5v117.2h-25.1V63.5H547.5z M593.7,63.5v7.2H547
		v-7.2H593.7z M585.5,119.5v7H547v-7H585.5z M591.7,173.6l4,7.2H547v-7.2H591.7z M604,146.4l-7.7,34.3h-32.8l6-7.2
		c5.6,0,10.5-1.1,14.7-3.3c4.2-2.2,7.9-5.3,10.9-9.4c3-4.1,5.4-8.9,7.2-14.5H604z M585.5,103.7v16.1h-15.9v-0.3
		c4.1-0.1,7.5-1.5,10.2-4.3c2.7-2.7,4-6.2,4-10.3v-1.2H585.5z M585.5,126.2v16.1h-1.7v-1.3c0-4.1-1.3-7.5-4-10.2s-6.1-4.1-10.2-4.2
		v-0.3H585.5z M593.7,60.5v4.9l-20.4-1.8c2.5,0,5.1-0.2,7.8-0.5c2.7-0.3,5.3-0.7,7.6-1.2C591.1,61.4,592.7,61,593.7,60.5z
		 M593.7,70.2v19.6h-1.7v-2c0-5.1-1.5-9.3-4.6-12.4c-3.1-3.1-7.2-4.7-12.5-4.9v-0.3H593.7z"/>
	<path class="st0" d="M645.3,75.8h-0.5c-0.1-2.9-1.2-5.4-3.3-7.5c-2.1-2.1-4.6-3.1-7.5-3.1c-0.1,0-0.5,0-1.1,0c-0.6,0-1,0-1.1,0
		v-1.7h13.4V75.8z M645.3,168.6v12.2h-13.4v-1.7c0.1,0,0.5,0,1.1,0c0.6,0,1,0,1.1,0c2.9,0,5.4-1,7.5-3.1c2.1-2.1,3.2-4.5,3.3-7.5
		H645.3z M670,63.5v117.2h-25.1V63.5H670z M689.4,63.5c5,0,9.9,0.6,14.7,1.7c4.8,1.1,9.1,2.9,12.8,5.4c3.7,2.5,6.7,5.7,9,9.7
		c2.2,4,3.4,9,3.4,14.9c0,4.7-1,9.4-2.9,14c-2,4.6-4.9,8.6-9,11.9c-4,3.3-9.2,5.3-15.6,5.9c3.6,1.1,6.8,3.1,9.8,6
		c3,2.9,5.4,5.8,7.3,8.7c0.1,0.2,0.8,1.2,1.9,3c1.2,1.8,2.6,4,4.4,6.6c1.7,2.6,3.5,5.3,5.4,8c1.9,2.7,3.6,5,5.2,7
		c2.5,3,4.7,5.4,6.7,7.3c2,1.8,4.1,3.2,6.4,4c2.2,0.8,4.8,1.3,7.7,1.4v1.7h-16.4c-6,0-11.5-0.5-16.4-1.6c-4.9-1.1-9.3-2.9-13.1-5.4
		c-3.8-2.6-7.1-6-9.9-10.4c-0.9-1.3-1.9-3-2.9-5.1c-1.1-2.1-2.2-4.3-3.3-6.6c-1.1-2.3-2.2-4.6-3.3-6.8c-1.1-2.2-2-4.2-2.8-5.9
		c-0.8-1.8-1.3-3.2-1.7-4.2c-1.5-3.6-3.2-6.3-5.1-8c-2-1.8-4-2.8-6.3-3.2v-1.7c0.3,0,1,0,2,0s2.1,0,3.2,0c3,0,5.9-0.6,8.8-1.8
		c2.8-1.2,5.4-3.2,7.6-6c2.2-2.8,3.8-6.6,4.7-11.6c0.2-1,0.4-2.2,0.6-3.5c0.2-1.3,0.2-2.8,0.1-4.5c-0.3-8-2.3-13.9-6-17.7
		c-3.7-3.7-8.3-5.7-13.7-5.8c-1.6-0.1-3.3-0.1-5.1-0.1c-1.8,0.1-3.5,0.1-5,0.1s-2.5,0-3.1,0c0-0.1-0.1-0.8-0.4-1.9
		c-0.3-1.2-0.7-3-1.3-5.4H689.4z M669.5,168.6h0.5c0,2.9,1.1,5.4,3.2,7.5c2.1,2.1,4.6,3.1,7.5,3.1c0.2,0,0.9,0,2,0v1.7h-13.2V168.6z
		"/>
	<path class="st0" d="M784.7,75.8h-0.5c-0.1-2.9-1.2-5.4-3.3-7.5c-2.1-2.1-4.6-3.1-7.5-3.1h-2.2v-1.7h13.4V75.8z M784.7,168.6v12.2
		h-13.4v-1.7h2.2c2.9,0,5.4-1,7.5-3.1c2.1-2.1,3.2-4.5,3.3-7.5H784.7z M809.3,63.5v117.2h-25.1V63.5H809.3z M855.5,63.5v7.2h-46.7
		v-7.2H855.5z M847.3,119.5v7h-38.5v-7H847.3z M853.5,173.6l4,7.2h-48.7v-7.2H853.5z M865.8,146.4l-7.7,34.3h-32.8l6-7.2
		c5.6,0,10.5-1.1,14.7-3.3c4.2-2.2,7.9-5.3,10.9-9.4c3-4.1,5.4-8.9,7.2-14.5H865.8z M847.3,103.7v16.1h-15.9v-0.3
		c4.1-0.1,7.5-1.5,10.2-4.3c2.7-2.7,4-6.2,4-10.3v-1.2H847.3z M847.3,126.2v16.1h-1.7v-1.3c0-4.1-1.3-7.5-4-10.2
		c-2.7-2.7-6.1-4.1-10.2-4.2v-0.3H847.3z M855.5,60.5v4.9l-20.4-1.8c2.5,0,5.1-0.2,7.8-0.5c2.7-0.3,5.3-0.7,7.6-1.2
		C852.9,61.4,854.5,61,855.5,60.5z M855.5,70.2v19.6h-1.7v-2c0-5.1-1.5-9.3-4.6-12.4c-3.1-3.1-7.2-4.7-12.5-4.9v-0.3H855.5z"/>
	<path class="st0" d="M905.1,168.9v11.9h-13.9v-1.7c2,0,3.1,0,3.2,0c2.8,0,5.2-1,7.2-3c2-2,3-4.4,3-7.2H905.1z M904.3,61l24.1,25.6
		l0.2,94.1h-24V82c0-6.3-0.7-13.2-2-20.9H904.3z M904.3,61l106.9,101.8l2,20.3L906.3,81.5L904.3,61z M928.6,168.9c0,2.8,1,5.2,3,7.2
		c2,2,4.4,3,7.2,3c0.1,0,1.2,0,3.2,0v1.7h-13.9v-11.9H928.6z M975.3,63.5h13.9v11.9h-0.3c-0.1-2.9-1.1-5.3-3.1-7.3
		c-2-2-4.4-2.9-7.3-2.9c-2,0-3.1,0-3.2,0V63.5z M1012.7,63.5v98.2c0,4.1,0.2,7.8,0.5,11.1c0.3,3.3,0.8,6.7,1.5,10.3h-1.5L988.9,156
		V63.5H1012.7z M1026.1,63.5v1.7h-3c-2.8,0-5.2,1-7.2,2.9c-2,2-3.1,4.4-3.2,7.3h-0.5V63.5H1026.1z"/>
	<path class="st0" d="M1065.6,75.8h-0.5c-0.1-2.9-1.2-5.4-3.3-7.5c-2.1-2.1-4.6-3.1-7.5-3.1h-2.2v-1.7h13.4V75.8z M1065.6,168.6
		v12.2h-13.4v-1.7h2.2c2.9,0,5.4-1,7.5-3.1c2.1-2.1,3.2-4.5,3.3-7.5H1065.6z M1090.2,63.5v117.2h-25.1V63.5H1090.2z M1089.7,75.8
		V63.5h13.4v1.7c-0.1,0-0.8,0-2.2,0c-2.9,0-5.4,1-7.5,3.1c-2.1,2.1-3.2,4.6-3.3,7.5H1089.7z M1089.7,168.6h0.5
		c0.1,2.9,1.2,5.4,3.3,7.5c2.1,2.1,4.5,3.1,7.5,3.1c1.3,0,2.1,0,2.2,0v1.7h-13.4V168.6z"/>
	<path class="st0" d="M1129.1,60.3c1.1,0.4,2.8,0.9,5.1,1.3c2.3,0.4,4.8,0.8,7.6,1.2c2.8,0.3,5.4,0.5,7.7,0.5l-20.4,1.8V60.3z
		 M1236.3,63.4v7h-107.2v-7H1236.3z M1147.7,69.9v0.5c-5.1,0.1-9.2,1.7-12.3,4.8c-3.1,3.1-4.6,7.2-4.6,12.5v1.8l-1.7,0.2V69.9
		H1147.7z M1170.6,168.6v12.2h-13.4v-1.7h2.2c2.9,0,5.4-1,7.5-3.1c2.1-2.1,3.2-4.5,3.3-7.5H1170.6z M1195.2,64v116.7h-25.1V64
		H1195.2z M1194.7,168.6h0.5c0.1,2.9,1.2,5.4,3.3,7.5c2.1,2.1,4.5,3.1,7.5,3.1h2.2v1.7h-13.4V168.6z M1236.3,60.3v4.9l-20.4-1.8
		c2.5,0,5.1-0.2,7.8-0.5c2.7-0.3,5.3-0.7,7.6-1.2C1233.6,61.2,1235.3,60.8,1236.3,60.3z M1236.3,69.9v19.8l-1.7-0.2v-1.8
		c0-5.2-1.5-9.4-4.6-12.5c-3.1-3.1-7.2-4.7-12.5-4.8v-0.5H1236.3z"/>
	<path class="st0" d="M1302.4,75.6l-28.3-0.5c-1.6-2.6-3.9-4.9-6.9-6.9c-3-2-6.3-3-9.9-3h-2.3v-1.7h55.4v1.7h-2.2
		c-2.5,0-4.3,1.1-5.6,3.4C1301.4,70.9,1301.3,73.2,1302.4,75.6z M1295.9,63.7l34.3,62.3l-23.8,2.3l-39.2-64.7H1295.9z M1306.5,168.6
		v12.2h-13.4v-1.7c1.3,0,2.1,0,2.2,0c2.9,0,5.4-1,7.5-3.1c2.1-2.1,3.2-4.5,3.3-7.5H1306.5z M1331.1,126.8v53.9H1306v-53.9H1331.1z
		 M1358,63.7h13.1l-41.7,66.5l-8.5-1.7L1358,63.7z M1330.6,168.6h0.5c0,2.9,1.1,5.4,3.2,7.5c2.1,2.1,4.6,3.1,7.5,3.1h2v1.7h-13.2
		V168.6z M1351.2,75.6c1-1.6,1.3-3.2,0.8-4.8c-0.4-1.6-1.3-3-2.5-4c-1.2-1.1-2.6-1.6-4.2-1.6h-2v-1.7h40v1.7h-2.3
		c-3.5,0-6.7,1-9.8,3c-3.1,2-5.4,4.3-7.1,6.9L1351.2,75.6z"/>
</g>
</svg>
